<mxfile host="Electron" modified="2024-01-22T06:03:38.864Z" agent="Mozilla/5.0 (Windows NT 10.0; Win64; x64) AppleWebKit/537.36 (KHTML, like Gecko) draw.io/22.1.18 Chrome/120.0.6099.199 Electron/28.1.2 Safari/537.36" etag="ZUsrTwY0wfd_QPMIEL8H" version="22.1.18" type="device">
  <diagram name="페이지-1" id="bRZw207uOp2oOIX8Dz0v">
    <mxGraphModel dx="1574" dy="974" grid="1" gridSize="10" guides="1" tooltips="1" connect="1" arrows="1" fold="1" page="1" pageScale="1" pageWidth="827" pageHeight="1169" math="0" shadow="0">
      <root>
        <mxCell id="0" />
        <mxCell id="1" parent="0" />
        <mxCell id="jecB1aLkNj_nnhOxp7ir-1" value="&lt;h1&gt;bool Backtracking&lt;/h1&gt;&lt;p&gt;완성이 됐다는 신호만 주고받는 재귀로 정했다&amp;nbsp;&lt;/p&gt;" style="text;html=1;strokeColor=none;fillColor=none;spacing=5;spacingTop=-20;whiteSpace=wrap;overflow=hidden;rounded=0;" vertex="1" parent="1">
          <mxGeometry x="166" y="140" width="410" height="120" as="geometry" />
        </mxCell>
        <mxCell id="jecB1aLkNj_nnhOxp7ir-2" value="지금 칸" style="swimlane;whiteSpace=wrap;html=1;" vertex="1" parent="1">
          <mxGeometry x="166" y="470" width="406" height="460" as="geometry" />
        </mxCell>
        <mxCell id="jecB1aLkNj_nnhOxp7ir-4" value="9번 반복" style="rounded=0;whiteSpace=wrap;html=1;shape=ellipse;perimeter=ellipsePerimeter;" vertex="1" parent="jecB1aLkNj_nnhOxp7ir-2">
          <mxGeometry x="16" y="50" width="120" height="60" as="geometry" />
        </mxCell>
        <mxCell id="jecB1aLkNj_nnhOxp7ir-5" value="1부터 9까지 숫자가 3개의 제한에 없나?" style="rounded=0;whiteSpace=wrap;html=1;shape=rhombus;perimeter=rhombusPerimeter;" vertex="1" parent="jecB1aLkNj_nnhOxp7ir-2">
          <mxGeometry x="-11" y="130" width="174" height="70" as="geometry" />
        </mxCell>
        <mxCell id="jecB1aLkNj_nnhOxp7ir-6" value="3개의 제한에 숫자 추가하고 다음 칸으로 백트래킹한 값 받아옴" style="rounded=0;whiteSpace=wrap;html=1;" vertex="1" parent="jecB1aLkNj_nnhOxp7ir-2">
          <mxGeometry x="16" y="220" width="120" height="60" as="geometry" />
        </mxCell>
        <mxCell id="jecB1aLkNj_nnhOxp7ir-7" value="완성됐다는 true 냐&amp;nbsp;" style="rhombus;whiteSpace=wrap;html=1;" vertex="1" parent="jecB1aLkNj_nnhOxp7ir-2">
          <mxGeometry x="40" y="295" width="80" height="80" as="geometry" />
        </mxCell>
        <mxCell id="jecB1aLkNj_nnhOxp7ir-8" value="true 리턴" style="rounded=0;whiteSpace=wrap;html=1;" vertex="1" parent="jecB1aLkNj_nnhOxp7ir-2">
          <mxGeometry x="20" y="390" width="120" height="60" as="geometry" />
        </mxCell>
        <mxCell id="jecB1aLkNj_nnhOxp7ir-9" value="반복" style="rounded=0;whiteSpace=wrap;html=1;" vertex="1" parent="jecB1aLkNj_nnhOxp7ir-2">
          <mxGeometry x="150" y="305" width="120" height="60" as="geometry" />
        </mxCell>
        <mxCell id="jecB1aLkNj_nnhOxp7ir-10" style="edgeStyle=orthogonalEdgeStyle;rounded=0;orthogonalLoop=1;jettySize=auto;html=1;entryX=1.017;entryY=0.367;entryDx=0;entryDy=0;entryPerimeter=0;" edge="1" parent="jecB1aLkNj_nnhOxp7ir-2" source="jecB1aLkNj_nnhOxp7ir-9" target="jecB1aLkNj_nnhOxp7ir-4">
          <mxGeometry relative="1" as="geometry">
            <Array as="points">
              <mxPoint x="240" y="72" />
            </Array>
          </mxGeometry>
        </mxCell>
        <mxCell id="jecB1aLkNj_nnhOxp7ir-11" value="지금칸의 row가 10이야? : return true" style="rounded=0;whiteSpace=wrap;html=1;" vertex="1" parent="1">
          <mxGeometry x="166" y="310" width="254" height="60" as="geometry" />
        </mxCell>
        <mxCell id="jecB1aLkNj_nnhOxp7ir-12" value="지금칸이 비어있지 않아? return 다음칸" style="rounded=0;whiteSpace=wrap;html=1;" vertex="1" parent="1">
          <mxGeometry x="166" y="390" width="254" height="60" as="geometry" />
        </mxCell>
      </root>
    </mxGraphModel>
  </diagram>
</mxfile>
